<?xml version="1.0" encoding="UTF-8" standalone="no"?>
<!DOCTYPE svg PUBLIC "-//W3C//DTD SVG 1.1//EN" "http://www.w3.org/Graphics/SVG/1.1/DTD/svg11.dtd">
<svg width="100%" height="100%" viewBox="0 0 598 991" version="1.1" xmlns="http://www.w3.org/2000/svg" xmlns:xlink="http://www.w3.org/1999/xlink" xml:space="preserve" xmlns:serif="http://www.serif.com/" style="fill-rule:evenodd;clip-rule:evenodd;stroke-linecap:round;stroke-linejoin:round;stroke-miterlimit:1.5;">
    <g id="Mesa-de-trabajo1" serif:id="Mesa de trabajo1" transform="matrix(0.785073,0,0,0.994235,-43.3498,-1.93039)">
        <rect x="55.217" y="1.942" width="760.594" height="995.953" style="fill:none;"/>
        <g transform="matrix(-2.29732,0,0,1.81402,1033.85,-439.498)">
            <g transform="matrix(1,0,0,1,-37.3146,31.4879)">
                <path d="M250.361,375.534C255.628,370.054 266.504,365.37 258.836,359.285C254.882,351.877 250.062,338.647 255.445,330.606C268.139,327.388 269.729,315.729 267.134,306.767C263.627,294.655 253.898,284.745 246.319,274.482C244.561,272.101 242.607,269.716 240.21,267.945C227.566,258.602 214.173,268.791 216.345,282.101C217.284,287.857 224.268,295.028 224.2,301L224.2,301.079C219.879,297.397 214.919,296.978 215.371,303.447C215.764,309.091 220.281,309.367 224.228,310.49C226.67,311.184 227.358,314.424 228.115,316.735C231.889,328.273 232.11,345.071 230.329,357.688C223.477,361.796 228.064,373.526 240.093,376L240,376C239.973,379.931 239.973,379.931 240,384C244.921,388.94 246.318,394.218 247,399.95C247.202,394.662 247.473,388.062 251,384C251,384 250.036,378.804 250.361,375.534Z" style="fill:rgb(241,238,230);"/>
                <path d="M239.872,376.084C233.644,374.742 229.431,370.925 227.784,366.995C226.258,363.353 226.928,359.613 230.211,357.61C231.083,351.402 231.471,344.185 231.189,337.085C230.899,329.785 229.901,322.607 227.993,316.775C227.555,315.435 227.141,313.782 226.39,312.499C225.867,311.605 225.179,310.893 224.193,310.612C221.715,309.908 219.016,309.527 217.236,307.969C216.147,307.015 215.395,305.625 215.243,303.456C215.057,300.789 215.788,299.269 216.99,298.64C218.722,297.734 221.495,298.683 224.072,300.806C224.055,299.585 223.747,298.316 223.265,297.02C221.403,292.024 216.956,286.637 216.219,282.122C215.094,275.225 218.116,269.161 223.048,266.172C227.712,263.345 234.089,263.263 240.286,267.842C241.252,268.556 242.146,269.368 242.984,270.24C244.237,271.541 245.365,272.974 246.422,274.406C250.927,280.507 256.191,286.483 260.458,292.87C263.377,297.241 265.83,301.805 267.257,306.732C268.63,311.474 268.835,316.968 266.864,321.581C265.09,325.733 261.557,329.175 255.524,330.718C253.381,333.947 252.89,338.013 253.318,342.195C253.951,348.375 256.594,354.809 258.936,359.201C261.496,361.241 262.006,363.133 261.368,364.944C260.797,366.564 259.287,368.126 257.465,369.683C255.2,371.618 252.455,373.549 250.484,375.591L250.484,375.591C250.388,376.594 250.412,377.774 250.492,378.926C250.67,381.521 251.126,383.977 251.126,383.977C251.133,384.015 251.122,384.054 251.096,384.084C249.671,385.725 248.784,387.786 248.217,390.005C247.389,393.249 247.247,396.832 247.128,399.955C247.125,400.022 247.072,400.075 247.005,400.078C246.939,400.08 246.881,400.031 246.873,399.965C246.519,396.983 245.97,394.125 244.829,391.373C243.786,388.86 242.247,386.437 239.91,384.09C239.886,384.066 239.873,384.034 239.872,384.001C239.859,382.001 239.852,380.984 239.852,380C239.852,378.996 239.858,378.027 239.872,376.084ZM224.328,301.001C224.342,299.692 224.024,298.327 223.504,296.931C221.648,291.95 217.206,286.582 216.471,282.08C215.364,275.297 218.33,269.33 223.18,266.39C227.768,263.61 234.039,263.544 240.134,268.048C241.088,268.753 241.972,269.556 242.8,270.417C244.045,271.71 245.166,273.135 246.217,274.557C250.719,280.655 255.981,286.628 260.245,293.012C263.15,297.361 265.592,301.901 267.012,306.803C268.369,311.49 268.578,316.921 266.629,321.48C264.878,325.579 261.382,328.969 255.414,330.482C255.383,330.49 255.356,330.509 255.339,330.535C253.141,333.818 252.627,337.959 253.064,342.221C253.702,348.446 256.365,354.928 258.723,359.345C258.731,359.361 258.743,359.374 258.756,359.385C261.213,361.334 261.736,363.129 261.127,364.859C260.568,366.444 259.082,367.966 257.299,369.489C255.016,371.44 252.248,373.387 250.269,375.446C250.249,375.467 250.237,375.493 250.234,375.522C250.132,376.547 250.156,377.76 250.237,378.944C250.4,381.314 250.793,383.569 250.864,383.963C249.436,385.626 248.541,387.704 247.97,389.942C247.266,392.699 247.054,395.7 246.932,398.459C246.571,395.983 246.026,393.591 245.064,391.275C244.015,388.747 242.471,386.309 240.127,383.947C240.114,381.982 240.108,380.975 240.107,380C240.107,379.003 240.114,378.04 240.127,376.123C240.177,376.11 240.215,376.067 240.22,376.013C240.224,375.982 240.215,375.952 240.199,375.928C240.194,375.9 240.169,375.879 240.113,375.874C233.879,374.59 229.657,370.804 228.02,366.897C226.538,363.36 227.18,359.724 230.395,357.797C230.428,357.777 230.45,357.744 230.455,357.706C231.336,351.47 231.727,344.214 231.444,337.075C231.153,329.749 230.15,322.547 228.236,316.695C227.793,315.34 227.371,313.668 226.611,312.37C226.053,311.418 225.314,310.666 224.263,310.367C221.822,309.673 219.158,309.312 217.405,307.777C216.358,306.861 215.643,305.522 215.498,303.439C215.322,300.915 215.971,299.461 217.109,298.866C218.823,297.969 221.578,299.012 224.117,301.176C224.155,301.209 224.208,301.216 224.253,301.195C224.299,301.174 224.328,301.129 224.328,301.079L224.328,301.001L224.328,301.001Z"/>
            </g>
            <g transform="matrix(1,0,0,1,-44.8419,21.7703)">
                <path d="M234.027,251.718L196.527,292.718C173.66,276.466 212.418,234.898 234.027,251.718Z" style="fill:rgb(242,107,91);"/>
                <path d="M234.106,251.617C234.134,251.639 234.151,251.671 234.154,251.707C234.157,251.742 234.145,251.778 234.121,251.804L196.621,292.804C196.578,292.851 196.506,292.859 196.453,292.822C184.659,284.439 189.133,269.357 199.255,258.938C208.86,249.05 223.529,243.385 234.106,251.617ZM233.839,251.734C223.372,243.704 208.919,249.356 199.438,259.116C189.456,269.391 184.963,284.247 196.509,292.548C196.509,292.548 233.839,251.734 233.839,251.734L233.839,251.734Z"/>
            </g>
            <g transform="matrix(1,0,0,1,-37.3146,31.4879)">
                <path d="M215.371,301.926L215.371,301.926C195.446,326.444 160.539,312.942 183.428,288.9C201.868,269.53 219.357,248.973 237.716,230.373C268.055,199.636 288.06,221.094 262.867,252.182C258.409,257.682 249.682,267.593 245.342,273.189L245.341,273.189C243.838,271.256 242.172,269.395 240.21,267.945C227.566,258.602 214.173,268.791 216.345,282.101C216.986,286.031 220.446,290.621 222.554,295.039L218.999,298.448C217.061,298.239 215.591,299.243 215.371,301.926Z" style="fill:rgb(242,107,91);"/>
                <path d="M245.351,273.316C245.387,273.314 245.42,273.296 245.442,273.267L245.442,273.267C246.821,271.491 248.641,269.279 250.627,266.911C254.895,261.823 259.924,256.016 262.966,252.262C270.398,243.091 273.903,234.753 274.381,228.34C274.732,223.621 273.446,219.937 270.887,217.711C268.355,215.509 264.572,214.727 259.873,215.794C253.765,217.182 246.095,221.702 237.625,230.283C232.062,235.92 226.578,241.736 221.123,247.645C208.578,261.234 196.188,275.311 183.335,288.811C176.59,295.897 174.848,302.081 176.238,306.653C177.486,310.761 181.259,313.586 186.246,314.615C194.669,316.354 206.562,312.968 215.47,302.007L215.371,302.054L215.498,301.937C215.594,300.764 215.931,299.921 216.45,299.368C217.076,298.701 217.963,298.465 218.985,298.575C219.023,298.579 219.06,298.566 219.087,298.54L222.642,295.131C222.682,295.093 222.693,295.033 222.669,294.984C221.256,292.023 219.236,288.984 217.864,286.119C217.195,284.721 216.681,283.365 216.471,282.08C215.364,275.297 218.33,269.33 223.18,266.39C227.768,263.61 234.039,263.544 240.134,268.048C241.112,268.77 242.015,269.595 242.861,270.48C243.705,271.363 244.493,272.306 245.241,273.268C245.265,273.299 245.302,273.317 245.341,273.317L245.351,273.316ZM215.247,301.876C215.353,300.653 215.719,299.774 216.264,299.193C216.931,298.482 217.869,298.211 218.953,298.315C218.953,298.315 222.399,295.01 222.399,295.01C220.988,292.076 218.993,289.067 217.634,286.229C216.954,284.808 216.432,283.428 216.219,282.122C215.094,275.225 218.116,269.161 223.048,266.172C227.712,263.345 234.089,263.263 240.286,267.842C241.275,268.573 242.189,269.408 243.045,270.303C243.858,271.153 244.619,272.058 245.341,272.981C246.708,271.225 248.491,269.06 250.431,266.747C254.698,261.66 259.727,255.854 262.768,252.101C270.157,242.983 273.652,234.698 274.126,228.321C274.471,223.698 273.226,220.084 270.719,217.904C268.24,215.747 264.532,214.998 259.93,216.043C253.854,217.424 246.231,221.927 237.807,230.462C232.245,236.097 226.764,241.911 221.311,247.818C208.765,261.408 196.373,275.486 183.52,288.988C176.864,295.98 175.111,302.067 176.482,306.579C177.705,310.603 181.412,313.356 186.298,314.365C194.643,316.087 206.417,312.722 215.247,301.876Z"/>
            </g>
            <g transform="matrix(1,0,0,1,-37.3146,31.4879)">
                <path d="M235.423,542.655C237.415,542.78 240.661,542.845 242.867,542.844C263.406,591.327 268.69,718.464 269.094,718.858C271.76,721.456 315.223,718.354 315.258,717.187C315.331,714.742 300.02,676.857 298.378,657.796C296.493,635.902 298.261,569.339 298.193,547.451C298.033,496.237 297.445,498.924 291.805,448.053C289.497,444.873 283.909,439.625 281,437C285.898,409.579 280.282,388.516 268.516,364C269.273,368.418 266.391,372.858 265,375C268.531,379.672 274.671,419.205 266.094,436.147C258.926,435.956 240.151,438.008 233,438.564C234.774,412.395 215.12,365.705 212,362.155C210.177,360.082 204.718,358.646 201.453,362C216.638,389.302 221.753,415.34 216.057,442C210.397,445.125 198.292,448.466 193.702,453.161C198.208,459.046 210.838,475.538 186,502C180.827,554.058 184.294,617.769 173.508,664.579C169.662,681.273 166.123,709.807 166.181,710.836C164.583,716.787 172.691,717.505 177.512,718.402C184.122,719.632 195.113,720.085 201.582,717.022C202.675,716.505 207.208,664.931 211.607,644.958C218.275,614.677 230.091,575.129 235.423,542.655Z" style="fill:rgb(52,85,139);"/>
                <path d="M235.53,542.79C233.923,552.559 231.73,562.965 229.269,573.566C223.553,598.182 216.388,623.843 211.731,644.985C210.54,650.394 209.339,658.121 208.2,666.523C205.908,683.416 203.864,703.038 202.644,712.051C202.343,714.273 202.091,715.852 201.899,716.59C201.849,716.782 201.801,716.92 201.759,717.002C201.719,717.08 201.673,717.12 201.637,717.137C199.01,718.381 195.64,719.05 192.119,719.321C186.942,719.72 181.436,719.262 177.489,718.528C174.736,718.016 170.918,717.558 168.429,716.164C166.5,715.083 165.354,713.449 166.053,710.82C166.043,710.015 167.307,699.482 169.149,687.597C170.375,679.691 171.855,671.186 173.384,664.55C176.787,649.784 178.77,633.334 180.054,616.099C182.839,578.706 182.332,537.617 185.873,501.987C185.876,501.959 185.888,501.933 185.907,501.913C194.212,493.065 198.32,485.336 199.94,478.747C203.147,465.699 196.584,457.135 193.6,453.238C193.562,453.188 193.566,453.117 193.611,453.072C195.088,451.56 197.338,450.187 199.904,448.917C205.298,446.248 212.087,444.032 215.944,441.916C218.887,428.104 218.925,414.459 216.16,400.718C213.599,387.985 208.632,375.169 201.342,362.062C201.314,362.013 201.322,361.951 201.362,361.911C202.878,360.352 204.86,359.808 206.743,359.878C208.986,359.963 211.087,360.923 212.096,362.071C214.149,364.407 223.357,385.391 228.921,406.943C231.809,418.127 233.716,429.464 233.137,438.425C238.005,438.041 247.961,437.005 256.138,436.421C260.113,436.138 263.668,435.961 266.016,436.017C269.754,428.571 270.663,416.798 270.216,405.545C269.644,391.195 266.87,377.686 264.898,375.077C264.866,375.034 264.864,374.976 264.893,374.93C265.778,373.567 267.271,371.27 268.034,368.64C268.461,367.169 268.66,365.594 268.39,364.022C268.379,363.959 268.416,363.898 268.477,363.878C268.538,363.859 268.603,363.887 268.631,363.945C274.532,376.24 278.887,387.667 281.147,399.462C283.395,411.191 283.572,423.283 281.138,436.953C282.855,438.503 285.472,440.937 287.806,443.324C289.452,445.008 290.958,446.668 291.909,447.978C291.922,447.996 291.93,448.017 291.932,448.039C294.752,473.477 296.31,485.524 297.182,497.614C298.054,509.705 298.241,521.839 298.321,547.451C298.366,562.11 297.588,596.807 297.636,624.704C297.659,638.457 297.883,650.556 298.506,657.785C298.941,662.845 300.342,669.234 302.163,675.934C306.012,690.101 311.735,705.655 314.19,712.99C314.953,715.269 315.398,716.765 315.386,717.191C315.384,717.234 315.368,717.281 315.324,717.325C315.283,717.367 315.203,717.415 315.083,717.461C314.699,717.606 313.833,717.772 312.595,717.946C307.739,718.63 297.109,719.461 287.557,719.818C281.64,720.039 276.136,720.079 272.673,719.789C270.722,719.626 269.409,719.343 269.005,718.95C268.994,718.939 268.961,718.883 268.946,718.771C268.925,718.615 268.898,718.289 268.863,717.803C268.747,716.206 268.551,712.873 268.255,708.179C267.086,689.673 264.361,650.012 258.914,612.253C255.047,585.449 249.81,559.603 242.782,542.971C241.716,542.971 240.419,542.956 239.141,542.927C237.826,542.896 236.532,542.85 235.53,542.79ZM201.515,716.913C201.521,716.902 201.539,716.873 201.55,716.847C201.582,716.773 201.615,716.665 201.652,716.526C201.843,715.793 202.092,714.224 202.391,712.016C203.611,703.004 205.655,683.382 207.947,666.488C209.087,658.078 210.29,650.344 211.482,644.93C216.138,623.787 223.304,598.125 229.02,573.508C231.49,562.872 233.688,552.431 235.297,542.634C235.308,542.57 235.365,542.523 235.431,542.528C236.445,542.591 237.785,542.64 239.147,542.671C240.456,542.702 241.787,542.717 242.867,542.716C242.918,542.716 242.964,542.747 242.984,542.794C250.035,559.438 255.291,585.346 259.167,612.217C264.615,649.984 267.341,689.654 268.51,708.163C268.806,712.856 269.002,716.189 269.117,717.784C269.152,718.263 269.179,718.584 269.199,718.737C269.202,718.756 269.205,718.775 269.207,718.789C269.618,719.152 270.867,719.382 272.695,719.534C276.15,719.823 281.642,719.784 287.547,719.563C297.089,719.206 307.709,718.376 312.559,717.693C313.77,717.523 314.617,717.364 314.993,717.222C315.048,717.201 315.106,717.168 315.13,717.153C315.122,716.698 314.679,715.253 313.948,713.071C311.492,705.734 305.767,690.173 301.916,676.001C300.092,669.285 298.688,662.88 298.251,657.807C297.628,650.573 297.404,638.466 297.38,624.705C297.333,596.808 298.111,562.11 298.065,547.451C297.985,521.849 297.799,509.719 296.927,497.633C296.055,485.55 294.5,473.511 291.682,448.101C290.736,446.803 289.248,445.164 287.623,443.502C285.27,441.096 282.627,438.64 280.914,437.095C280.882,437.065 280.867,437.021 280.874,436.978C283.315,423.313 283.142,411.23 280.896,399.51C278.683,387.963 274.458,376.769 268.74,364.764C268.846,366.112 268.646,367.449 268.279,368.711C267.522,371.322 266.054,373.61 265.155,374.996C267.133,377.786 269.902,391.243 270.471,405.535C270.922,416.871 269.991,428.731 266.208,436.205C266.185,436.249 266.14,436.276 266.09,436.275C263.749,436.212 260.167,436.39 256.156,436.676C247.896,437.266 237.821,438.317 233.01,438.692C232.973,438.694 232.937,438.681 232.91,438.655C232.884,438.629 232.87,438.593 232.873,438.556C233.48,429.594 231.57,418.224 228.674,407.007C223.123,385.508 213.952,364.57 211.904,362.24C210.93,361.132 208.899,360.215 206.734,360.134C204.946,360.066 203.065,360.571 201.611,362.022C208.89,375.125 213.85,387.937 216.411,400.667C219.186,414.462 219.144,428.16 216.181,442.027C216.174,442.063 216.151,442.094 216.118,442.112C212.269,444.237 205.438,446.463 200.017,449.146C197.525,450.38 195.332,451.709 193.871,453.171C196.909,457.141 203.398,465.748 200.188,478.808C198.562,485.421 194.447,493.179 186.123,502.056C182.587,537.674 183.093,578.742 180.308,616.118C179.024,633.367 177.038,649.829 173.633,664.608C172.105,671.238 170.626,679.736 169.402,687.636C167.546,699.611 166.274,710.21 166.308,710.829C166.309,710.843 166.308,710.856 166.304,710.869C165.633,713.367 166.724,714.916 168.554,715.941C171.021,717.323 174.807,717.769 177.535,718.277C181.465,719.007 186.945,719.463 192.099,719.066C195.581,718.798 198.914,718.141 201.515,716.913Z"/>
            </g>
            <g transform="matrix(1,0,0,1,-37.3146,31.4879)">
                <path d="M203,365C218.185,392.302 221.753,415.34 216.057,442C211.853,444.321 203.705,446.975 198.11,450C200.445,433.15 206.713,436.934 203.5,420.161C200.538,421.315 197.898,423.299 196.692,426C189.365,411.49 161.436,396.761 158.785,420.218C158.785,405.213 178.102,403.526 181.08,398C184.513,388.969 188.405,382.931 194.756,374.918C197.194,371.84 199.741,367.553 203,365Z" style="fill:rgb(191,214,65);"/>
                <path d="M202.921,364.899C202.951,364.876 202.989,364.867 203.025,364.875C203.062,364.882 203.093,364.905 203.112,364.938C210.412,378.064 215.029,390.205 217.226,402.236C219.604,415.259 219.146,428.153 216.181,442.027C216.174,442.063 216.151,442.094 216.118,442.112C212.735,443.98 206.798,446.064 201.691,448.383C200.452,448.945 199.263,449.522 198.171,450.112C198.128,450.135 198.077,450.132 198.037,450.105C197.998,450.077 197.977,450.03 197.984,449.982C199.455,439.366 202.484,436.933 203.726,432.399C204.447,429.768 204.558,426.425 203.403,420.336C202.023,420.889 200.718,421.623 199.603,422.53C198.399,423.508 197.418,424.687 196.808,426.052C196.788,426.097 196.744,426.126 196.695,426.128C196.646,426.129 196.6,426.102 196.578,426.058C192.38,417.745 181.397,409.359 172.317,408.18C168.612,407.699 165.224,408.421 162.758,410.86C160.787,412.809 159.407,415.85 158.912,420.232C158.904,420.299 158.846,420.349 158.778,420.345C158.71,420.342 158.657,420.286 158.657,420.218C158.657,414.924 161.041,411.273 164.27,408.526C167.969,405.38 172.781,403.424 176.366,401.535C178.523,400.398 180.233,399.291 180.962,397.949C182.712,393.347 184.58,389.523 186.831,385.819C189.003,382.243 191.532,378.779 194.655,374.838C196.121,372.989 197.625,370.704 199.299,368.62C200.418,367.227 201.613,365.925 202.921,364.899ZM202.961,365.193C201.714,366.192 200.571,367.445 199.499,368.78C197.825,370.863 196.321,373.148 194.856,374.997C191.74,378.929 189.216,382.384 187.049,385.952C184.805,389.645 182.943,393.459 181.199,398.045C181.197,398.051 181.195,398.056 181.192,398.061C180.448,399.441 178.702,400.592 176.485,401.761C172.915,403.643 168.12,405.587 164.436,408.721C162.014,410.781 160.074,413.357 159.289,416.773L159.294,416.755C160.006,414.094 161.14,412.102 162.578,410.679C165.1,408.185 168.561,407.435 172.35,407.927C181.416,409.104 192.37,417.408 196.686,425.709C197.317,424.409 198.277,423.279 199.442,422.331C200.615,421.378 201.995,420.61 203.454,420.042C203.489,420.028 203.529,420.031 203.562,420.049C203.595,420.067 203.618,420.099 203.625,420.137C204.821,426.38 204.706,429.789 203.972,432.467C202.743,436.957 199.753,439.381 198.272,449.769C199.307,449.217 200.425,448.678 201.585,448.15C206.66,445.846 212.556,443.775 215.943,441.916C218.89,428.099 219.343,415.255 216.975,402.282C214.79,390.316 210.204,378.242 202.961,365.193Z"/>
            </g>
            <g transform="matrix(1,0,0,1,-37.3146,31.4879)">
                <path d="M198.5,449.786C196.562,450.834 194.883,451.953 193.702,453.161"/>
                <path d="M198.561,449.899C197.467,450.49 196.456,451.104 195.571,451.744C194.899,452.23 194.3,452.732 193.793,453.25C193.744,453.3 193.663,453.301 193.613,453.252C193.562,453.203 193.561,453.122 193.611,453.072C194.127,452.544 194.737,452.033 195.422,451.537C196.315,450.891 197.335,450.271 198.439,449.674C198.501,449.64 198.579,449.663 198.612,449.725C198.646,449.787 198.623,449.865 198.561,449.899Z"/>
            </g>
            <g transform="matrix(1,0,0,1,-37.3146,31.4879)">
                <path d="M235.423,542.655C235.873,539.916 236.384,536.577 236.732,533.959"/>
                <path d="M235.297,542.634C235.519,541.28 235.756,539.78 235.982,538.292C236.212,536.772 236.43,535.265 236.606,533.942C236.615,533.872 236.679,533.823 236.749,533.832C236.819,533.841 236.868,533.906 236.859,533.976C236.683,535.3 236.465,536.808 236.234,538.331C236.009,539.819 235.771,541.321 235.549,542.676C235.537,542.745 235.472,542.792 235.402,542.781C235.333,542.77 235.285,542.704 235.297,542.634Z"/>
            </g>
            <g transform="matrix(1,0,0,1,-37.3146,31.4879)">
                <path d="M255,350.335C262.366,350.596 270.686,359.447 268,369C267.572,370.521 256.23,392.37 252.389,392.178C252.32,392.175 249.824,378.405 250.361,375.534C255.628,370.054 266.504,365.37 258.836,359.285C257.546,356.913 256.267,353.956 255,350.335Z" style="fill:rgb(242,107,91);"/>
                <path d="M254.879,350.377C254.866,350.337 254.872,350.293 254.897,350.259C254.922,350.225 254.962,350.205 255.005,350.207C258.923,350.346 263.111,352.889 265.796,356.679C268.205,360.079 269.404,364.478 268.123,369.035C267.842,370.035 262.853,379.808 258.367,386.355C256.766,388.691 255.228,390.617 253.99,391.593C253.377,392.077 252.83,392.328 252.383,392.306C252.368,392.305 252.295,392.3 252.264,392.211C252.259,392.196 252.249,392.161 252.238,392.11C252.204,391.962 252.143,391.652 252.061,391.215C251.736,389.472 251.092,385.706 250.643,382.245C250.265,379.322 250.029,376.615 250.236,375.511C250.24,375.487 250.252,375.464 250.269,375.446C252.248,373.387 255.016,371.44 257.299,369.489C259.082,367.966 260.568,366.444 261.127,364.859C261.736,363.129 261.213,361.334 258.756,359.385C258.743,359.375 258.732,359.361 258.723,359.346C258.021,358.053 257.321,356.587 256.624,354.935C256.04,353.549 255.459,352.032 254.879,350.377ZM255.183,350.471C255.74,352.052 256.299,353.505 256.86,354.836C257.548,356.47 258.24,357.92 258.935,359.201C261.495,361.24 262.006,363.133 261.368,364.944C260.797,366.564 259.287,368.126 257.465,369.683C255.199,371.62 252.452,373.552 250.48,375.595C250.326,376.488 250.45,378.366 250.694,380.546C251.113,384.279 251.892,388.893 252.282,391.003C252.374,391.506 252.445,391.866 252.483,392.037L252.486,392.051C252.869,392.034 253.322,391.795 253.832,391.392C255.056,390.427 256.574,388.52 258.157,386.21C262.624,379.691 267.597,369.962 267.877,368.965C269.136,364.488 267.954,360.167 265.588,356.827C262.994,353.165 258.976,350.68 255.183,350.471Z"/>
            </g>
            <g transform="matrix(1,0,0,1,-37.3146,31.4879)">
                <path d="M230.329,357.688C223.477,361.796 228.064,373.526 240.093,376L240,376C239.973,379.931 239.903,388.324 240.091,392.245C227.163,387.341 204.329,360.259 231,351.639L230.329,357.688Z" style="fill:rgb(242,107,91);"/>
                <path d="M240.113,375.874C233.879,374.59 229.657,370.804 228.02,366.897C226.538,363.36 227.18,359.724 230.395,357.797C230.429,357.777 230.451,357.741 230.456,357.702L231.127,351.653C231.132,351.61 231.114,351.568 231.081,351.54C231.047,351.513 231.002,351.504 230.961,351.518C220.468,354.909 217.588,361.145 218.736,367.77C220.522,378.079 232.132,389.363 240.046,392.365C240.086,392.38 240.132,392.374 240.167,392.349C240.201,392.323 240.221,392.282 240.219,392.239C240.141,390.625 240.108,388.254 240.097,385.748C240.081,382.229 240.111,378.447 240.127,376.123C240.177,376.11 240.215,376.067 240.22,376.013C240.224,375.982 240.215,375.952 240.199,375.928C240.194,375.9 240.169,375.879 240.113,375.874ZM230.209,357.611L230.851,351.822C220.683,355.171 217.865,361.249 218.987,367.726C220.746,377.877 232.107,388.975 239.955,392.056C239.884,390.446 239.852,388.16 239.841,385.749C239.826,382.21 239.856,378.405 239.872,376.084C233.644,374.742 229.431,370.925 227.784,366.995C226.258,363.354 226.928,359.615 230.209,357.611Z"/>
            </g>
            <g transform="matrix(1,0,0,1,-37.3146,31.4879)">
                <path d="M181.08,398C180.373,399.859 179.685,401.844 179,404"/>
                <path d="M181.199,398.045C180.835,399.004 180.475,399.996 180.119,401.027C179.785,401.995 179.453,402.997 179.122,404.039C179.1,404.106 179.028,404.143 178.961,404.122C178.894,404.1 178.857,404.028 178.878,403.961C179.21,402.917 179.543,401.913 179.878,400.944C180.235,399.91 180.595,398.915 180.96,397.955C180.985,397.889 181.059,397.856 181.125,397.881C181.191,397.906 181.224,397.98 181.199,398.045Z"/>
            </g>
            <g transform="matrix(1,0,0,1,-37.3146,31.4879)">
                <path d="M158.785,420.218C159.682,409.353 189.552,417.352 187.271,433.28C185.138,433.119 182.573,435.091 181.075,436.5C184.364,440.706 193.235,444.211 197.422,436.6C205.6,421.732 162.125,390.662 158.785,420.218Z" style="fill:rgb(242,107,91);"/>
                <path d="M158.963,419.812C159.276,417.862 160.616,416.594 162.546,415.926C166.052,414.713 171.485,415.465 176.367,417.721C182.692,420.645 188.102,426.104 187.161,433.146C186.298,433.112 185.37,433.403 184.472,433.86C183.143,434.535 181.878,435.569 180.988,436.407C180.94,436.452 180.934,436.527 180.975,436.579C182.726,438.819 186.044,440.862 189.41,441.168C192.446,441.445 195.523,440.317 197.534,436.662C199.28,433.487 198.707,429.58 196.669,425.676C193.013,418.672 184.641,411.672 176.672,408.961C172.114,407.411 167.688,407.265 164.341,409.3C161.486,411.035 159.408,414.358 158.711,419.77C158.688,419.912 158.67,420.058 158.658,420.207C158.652,420.277 158.703,420.338 158.773,420.345C158.842,420.352 158.904,420.301 158.912,420.232C158.928,420.091 158.945,419.951 158.963,419.812ZM159.214,418.242C159.854,417.036 160.993,416.193 162.462,415.685C166.017,414.456 171.526,415.202 176.474,417.49C182.936,420.477 188.43,426.086 187.398,433.299C187.388,433.365 187.329,433.413 187.262,433.408C186.407,433.343 185.483,433.633 184.588,434.087C183.323,434.73 182.118,435.704 181.248,436.513C182.981,438.669 186.184,440.618 189.433,440.914C192.378,441.182 195.36,440.084 197.31,436.539C199.018,433.433 198.437,429.613 196.443,425.794C192.813,418.842 184.501,411.894 176.59,409.203C172.111,407.679 167.762,407.519 164.473,409.518C161.957,411.048 160.069,413.841 159.214,418.242Z"/>
            </g>
            <g transform="matrix(1,0,0,1,-37.3146,31.4879)">
                <path d="M209,419C207.213,419.065 205.297,419.46 203.5,420.161"/>
                <path d="M209.005,419.128C208.102,419.16 207.166,419.278 206.229,419.478C205.326,419.67 204.422,419.938 203.546,420.28C203.481,420.305 203.407,420.273 203.381,420.207C203.355,420.141 203.388,420.067 203.454,420.042C204.342,419.696 205.259,419.423 206.176,419.228C207.127,419.025 208.078,418.906 208.995,418.872C209.066,418.87 209.125,418.925 209.128,418.995C209.13,419.066 209.075,419.125 209.005,419.128Z"/>
            </g>
            <g transform="matrix(1,0,0,1,-37.3146,31.4879)">
                <path d="M158.785,420.218C159.682,409.353 189.552,417.352 187.271,433.28C185.138,433.119 182.573,435.091 181.075,436.5C187.754,451.086 199.067,451.138 200.744,472.018C201.281,478.698 197.18,487.595 192.959,492.984C191.505,494.84 189.972,496.632 188.477,498.455C185.551,502.021 177.255,512.034 171.562,512.852C167.858,513.385 164.04,512.699 160.431,511.914C157.068,511.182 140.732,505.721 138.4,500.685C136.514,496.613 137.473,492.143 138.383,487.911L138.363,488C140.725,480.715 147.42,482.399 152.878,484.5C151.198,479.864 154.124,475.373 153.247,470.653C150.166,466.935 146.761,461.968 144.09,457.945C142.287,455.229 140.589,452.503 139.605,449.379C135.238,435.519 149.236,427.917 158.785,420.217C161.746,417.83 158.785,420.218 158.785,420.218Z" style="fill:rgb(241,238,230);"/>
                <path d="M138.238,487.974C137.698,490.489 137.149,493.086 137.189,495.633C137.217,497.372 137.519,499.088 138.284,500.739C139.235,502.791 142.485,504.924 146.254,506.774C151.773,509.483 158.396,511.602 160.404,512.039C162.574,512.511 164.819,512.947 167.071,513.105C168.578,513.211 170.088,513.193 171.58,512.979C173.912,512.644 176.682,510.784 179.342,508.445C183.201,505.051 186.836,500.656 188.575,498.536C189.622,497.26 190.687,495.999 191.731,494.72C192.179,494.172 192.622,493.62 193.059,493.062C195.153,490.39 197.217,486.858 198.704,483.16C200.228,479.369 201.145,475.403 200.872,472.008C200.284,464.688 198.514,459.919 196.177,456.188C191.854,449.286 185.572,445.952 181.23,436.53C182.101,435.718 183.314,434.734 184.588,434.087C185.483,433.633 186.407,433.343 187.262,433.408C187.329,433.413 187.388,433.365 187.398,433.299C188.43,426.086 182.936,420.477 176.474,417.49C171.526,415.202 166.017,414.456 162.462,415.685C160.314,416.428 158.871,417.888 158.663,420.152C153.016,424.699 145.833,429.218 141.795,435.008C138.978,439.048 137.683,443.706 139.483,449.417C139.879,450.673 140.389,451.865 140.975,453.018C141.852,454.744 142.899,456.382 143.984,458.016C145.577,460.416 147.432,463.153 149.324,465.76C150.598,467.515 151.889,469.212 153.128,470.71C153.725,473.993 152.481,477.165 152.255,480.354C152.162,481.658 152.238,482.965 152.668,484.283C149.382,483.036 145.686,481.992 142.756,482.933C140.832,483.551 139.229,485.016 138.283,487.836C138.273,487.84 138.264,487.855 138.257,487.888L138.258,487.884L138.238,487.973L138.238,487.974ZM158.946,419.924C159.226,417.91 160.579,416.607 162.546,415.926C166.052,414.713 171.485,415.465 176.367,417.721C182.692,420.645 188.102,426.104 187.161,433.146C186.298,433.112 185.37,433.403 184.472,433.86C183.143,434.535 181.878,435.569 180.988,436.407C180.948,436.445 180.936,436.503 180.959,436.553C185.308,446.051 191.619,449.392 195.96,456.323C198.281,460.027 200.033,464.762 200.617,472.028C200.887,475.389 199.975,479.313 198.467,483.065C196.989,486.74 194.938,490.25 192.858,492.905C192.423,493.461 191.98,494.012 191.533,494.559C190.49,495.837 189.424,497.098 188.378,498.374C186.644,500.488 183.021,504.87 179.173,508.253C176.556,510.554 173.838,512.396 171.544,512.726C170.07,512.938 168.578,512.955 167.088,512.85C164.85,512.693 162.616,512.259 160.458,511.789C158.458,511.354 151.863,509.243 146.366,506.545C142.661,504.726 139.45,502.649 138.515,500.631C137.766,499.014 137.472,497.333 137.444,495.629C137.404,493.103 137.951,490.528 138.487,488.033C139.395,485.235 140.95,483.781 142.834,483.176C145.791,482.227 149.538,483.351 152.832,484.619C152.879,484.637 152.932,484.626 152.968,484.591C153.003,484.556 153.015,484.504 152.998,484.456C152.501,483.085 152.413,481.727 152.509,480.372C152.738,477.151 153.989,473.947 153.373,470.63C153.369,470.608 153.359,470.588 153.345,470.571C152.103,469.073 150.809,467.371 149.531,465.61C147.641,463.006 145.788,460.272 144.197,457.874C143.117,456.249 142.076,454.619 141.203,452.902C140.623,451.762 140.118,450.583 139.727,449.34C137.955,443.717 139.231,439.132 142.005,435.154C146.038,429.371 153.223,424.865 158.858,420.323C158.86,420.321 158.863,420.319 158.865,420.317C158.865,420.317 160.166,419.268 160.182,419.255C160.182,419.255 160.183,419.254 160.183,419.253C160.238,419.198 160.207,419.148 160.158,419.113C160.133,419.055 160.09,419.012 160.023,419.057C160.022,419.057 160.021,419.057 160.02,419.058L160.008,419.067L158.946,419.924ZM138.37,487.995L138.379,488.024C138.38,488.029 138.381,488.034 138.383,488.038L138.419,488.008L138.37,487.995Z"/>
            </g>
            <g transform="matrix(1,0,0,1,-37.3146,31.4879)">
                <path d="M181.075,436.5C180.515,435.276 179.987,433.95 179.5,432.5"/>
                <path d="M180.959,436.553C180.669,435.92 180.388,435.259 180.116,434.567C179.861,433.919 179.615,433.244 179.379,432.541C179.357,432.474 179.393,432.401 179.459,432.379C179.526,432.357 179.599,432.393 179.621,432.459C179.856,433.159 180.101,433.83 180.354,434.474C180.623,435.161 180.903,435.817 181.191,436.447C181.221,436.511 181.192,436.587 181.128,436.616C181.064,436.645 180.988,436.617 180.959,436.553Z"/>
            </g>
            <g transform="matrix(1,0,0,1,-37.3146,31.4879)">
                <path d="M152.999,484.457C152.999,484.457 153.632,486.246 154.422,487.961C154.8,488.782 155.213,489.586 155.61,490.166C155.65,490.224 155.635,490.303 155.577,490.343C155.519,490.383 155.439,490.368 155.4,490.31C154.996,489.72 154.574,488.903 154.19,488.067C153.395,486.342 152.758,484.543 152.758,484.543C152.734,484.476 152.769,484.403 152.836,484.38C152.902,484.356 152.975,484.391 152.999,484.457Z"/>
            </g>
            <g transform="matrix(1,0,0,1,-37.3146,31.4879)">
                <path d="M339.137,409C294.829,397.946 299.342,460.408 334.5,442.563C304.522,440.377 318.087,406.568 339.137,409Z" style="fill:rgb(242,107,91);"/>
                <path d="M339.168,408.876C339.233,408.892 339.274,408.957 339.262,409.023C339.25,409.089 339.189,409.135 339.122,409.127C328.489,407.898 319.78,415.978 317.698,424.503C315.688,432.736 319.886,441.369 334.509,442.436C334.566,442.44 334.614,442.482 334.625,442.538C334.636,442.594 334.609,442.651 334.558,442.677C326.082,446.979 319.376,446.631 314.691,443.785C308.862,440.243 306.154,432.821 307.064,425.608C308.475,414.427 318.566,403.736 339.168,408.876ZM337.521,408.755C318.2,404.592 308.677,414.867 307.317,425.64C306.42,432.751 309.077,440.075 314.824,443.567C319.374,446.331 325.856,446.687 334.033,442.654C319.55,441.425 315.429,432.718 317.45,424.443C319.451,416.249 327.499,408.465 337.518,408.755L337.521,408.755Z"/>
            </g>
            <g transform="matrix(1,0,0,1,-40.3146,33.6433)">
                <path d="M201.873,365.988C201.998,364.708 202.247,363.607 202.592,362.665C203.04,361.443 203.65,360.487 204.362,359.756C204.411,359.705 204.492,359.704 204.542,359.753C204.593,359.802 204.594,359.883 204.545,359.934C203.855,360.642 203.266,361.569 202.832,362.752C202.493,363.677 202.25,364.757 202.127,366.012C202.12,366.083 202.058,366.134 201.988,366.127C201.917,366.12 201.866,366.058 201.873,365.988Z"/>
            </g>
            <g transform="matrix(1,0,0,1,-34.6204,17.8759)">
                <path d="M246.576,556.078C242.401,556.215 237.969,556.676 233.769,556.328"/>
                <path d="M246.58,556.206C244.076,556.288 241.48,556.487 238.897,556.558C237.168,556.605 235.445,556.595 233.759,556.456C233.689,556.45 233.636,556.388 233.642,556.318C233.648,556.248 233.71,556.195 233.78,556.201C235.456,556.34 237.17,556.35 238.89,556.302C241.473,556.231 244.068,556.033 246.572,555.951C246.642,555.948 246.701,556.004 246.704,556.074C246.706,556.145 246.651,556.204 246.58,556.206Z"/>
            </g>
            <g transform="matrix(0.95539,0.235809,-0.219581,0.889642,83.7268,18.505)">
                <path d="M218.471,477.119C232.943,526.07 280.304,519.699 266.083,461.127L218.471,477.119Z" style="fill:rgb(161,181,208);"/>
                <path d="M218.347,477.161C218.337,477.126 218.34,477.088 218.356,477.055C218.372,477.022 218.399,476.997 218.432,476.986L266.045,460.994C266.079,460.983 266.115,460.987 266.146,461.005C266.177,461.024 266.2,461.055 266.209,461.092C273.138,489.631 265.457,505.811 254.102,509.299C242.064,512.997 225.823,502.447 218.347,477.161ZM218.634,477.21C226.071,502.208 242.105,512.694 254.031,509.031C265.281,505.575 272.809,489.54 265.992,461.304C265.992,461.304 218.634,477.21 218.634,477.21L218.634,477.21Z"/>
            </g>
            <g transform="matrix(1,0,0,1,-37.3146,31.4879)">
                <path d="M178.913,718.64C182.529,719.201 187.105,719.518 191.499,719.237L193.702,719.341C193.528,725.384 197.054,733.086 197.363,739.777C197.474,742.173 197.172,744.44 196.14,746.454C195.579,747.549 190.06,746.261 184.614,746.454C178.564,746.668 161.741,746.828 153.297,748.068C152.623,748.189 175.583,736.147 178.913,718.64L178.913,718.64Z" style="fill:rgb(242,107,91);"/>
                <path d="M178.935,718.515L178.94,718.516C179.057,718.543 178.922,718.754 178.913,718.767L178.913,718.768L179.038,718.664L179.036,718.676C179.038,718.668 179.04,718.659 179.041,718.65C179.046,718.586 179.002,718.529 178.94,718.516L178.933,718.514C180.814,718.806 182.956,719.032 185.197,719.141C187.253,719.241 189.393,719.243 191.491,719.109C191.495,719.109 191.5,719.109 191.505,719.109L193.708,719.213C193.777,719.217 193.831,719.275 193.829,719.345C193.792,720.649 193.928,722.03 194.167,723.462C195.034,728.664 197.248,734.528 197.491,739.771C197.546,740.957 197.5,742.112 197.316,743.22C197.125,744.373 196.785,745.475 196.254,746.512C196.155,746.705 195.93,746.845 195.586,746.926C195.189,747.02 194.623,747.042 193.927,747.021C191.708,746.955 188.148,746.456 184.619,746.581C180.918,746.713 173.185,746.823 165.806,747.173C161.127,747.395 156.59,747.713 153.315,748.195C153.238,748.209 153.198,748.166 153.182,748.147C153.158,748.116 153.125,748.054 153.187,747.978C153.204,747.957 153.273,747.904 153.393,747.826C153.688,747.636 154.332,747.249 155.232,746.679C158.707,744.477 166,739.543 171.634,732.722C175.008,728.637 177.787,723.875 178.787,718.617L178.913,718.768L178.913,718.768L178.913,718.767C178.91,718.753 178.851,718.51 178.919,718.513C178.925,718.513 178.93,718.514 178.935,718.515ZM179.015,718.785C177.988,724.037 175.206,728.798 171.831,732.884C166.176,739.731 158.857,744.685 155.368,746.895C154.689,747.325 154.155,747.652 153.808,747.867C157.04,747.426 161.353,747.129 165.794,746.918C173.174,746.568 180.908,746.457 184.61,746.326C188.146,746.201 191.712,746.699 193.935,746.766C194.603,746.786 195.147,746.767 195.528,746.678C195.779,746.619 195.954,746.536 196.026,746.396C196.546,745.383 196.877,744.305 197.064,743.179C197.245,742.087 197.29,740.951 197.236,739.783C196.994,734.549 194.78,728.696 193.915,723.504C193.681,722.101 193.545,720.745 193.571,719.463C193.571,719.463 191.5,719.364 191.5,719.364C189.395,719.499 187.248,719.496 185.184,719.396C182.982,719.289 180.875,719.069 179.015,718.785Z"/>
            </g>
            <g transform="matrix(1,0,0,1,-37.3146,31.4879)">
                <path d="M298.479,719.115L300.5,719C299.141,735.251 314.778,736.83 326.882,745.392C327.76,746.013 301.728,746.894 295.035,745.862C292.244,745.432 283.947,748.68 281.264,748.069C276.852,747.064 281.905,726.209 283,720L290.93,719.547C293.468,719.427 296.025,719.279 298.479,719.115Z" style="fill:rgb(242,107,91);"/>
                <path d="M298.471,718.988L300.493,718.873C300.53,718.87 300.566,718.884 300.591,718.911C300.617,718.937 300.63,718.974 300.627,719.011C300.065,725.737 302.435,729.931 306.262,733.15C311.65,737.683 319.903,740.299 326.956,745.288C327.013,745.328 327.03,745.377 327.031,745.417C327.033,745.467 327.006,745.545 326.89,745.596C326.739,745.662 326.333,745.732 325.721,745.799C323.661,746.024 319.188,746.243 314.211,746.365C306.869,746.545 298.429,746.515 295.015,745.988C292.909,745.663 287.657,747.449 284.071,748.066C282.897,748.268 281.898,748.345 281.235,748.194C280.462,748.018 279.949,747.276 279.662,746.11C279.3,744.638 279.288,742.479 279.487,740.002C280.037,733.128 282.202,723.791 282.874,719.978C282.885,719.92 282.934,719.876 282.993,719.873L290.924,719.419C292.182,719.36 293.446,719.294 294.698,719.222C295.972,719.149 297.234,719.071 298.471,718.988ZM326.669,745.399C319.641,740.469 311.455,737.853 306.098,733.346C302.239,730.1 299.836,725.88 300.361,719.136L298.487,719.243C297.25,719.326 295.987,719.404 294.713,719.477C293.46,719.549 292.196,719.615 290.937,719.674C290.937,719.674 283.108,720.122 283.108,720.122C282.417,723.992 280.286,733.216 279.741,740.023C279.546,742.466 279.553,744.596 279.91,746.049C280.168,747.096 280.598,747.787 281.292,747.945C281.931,748.09 282.895,748.009 284.028,747.814C287.64,747.192 292.933,745.409 295.054,745.736C297.488,746.111 302.485,746.232 307.811,746.206C314.521,746.172 321.756,745.903 325.059,745.608C325.838,745.538 326.395,745.468 326.669,745.399Z"/>
            </g>
            <g transform="matrix(1,0,0,1,-37.3146,31.4879)">
                <path d="M144.885,494.017C145.603,491.928 147.325,489.764 149.386,488.575C150.846,487.733 152.475,487.381 154.039,487.878C154.106,487.9 154.143,487.972 154.122,488.039C154.1,488.106 154.028,488.143 153.961,488.122C152.109,487.533 150.164,488.202 148.544,489.447C146.975,490.653 145.71,492.402 145.126,494.1C145.103,494.167 145.031,494.203 144.964,494.18C144.897,494.157 144.862,494.084 144.885,494.017Z"/>
            </g>
            <g transform="matrix(1,0,0,1,-37.3146,31.4879)">
                <path d="M142.88,482.957C143.524,481.159 144.94,479.261 146.811,477.991C148.549,476.813 150.678,476.176 152.946,476.655C153.015,476.669 153.059,476.737 153.044,476.806C153.03,476.875 152.962,476.919 152.893,476.904C150.697,476.441 148.637,477.062 146.955,478.203C145.13,479.44 143.749,481.29 143.12,483.043C143.096,483.109 143.023,483.144 142.957,483.12C142.891,483.096 142.856,483.023 142.88,482.957Z"/>
            </g>
            <g transform="matrix(1,0,0,1,-37.3146,31.4879)">
                <path d="M403.955,313.959L387.515,340.431L400.685,340.431C403.265,335.458 406.005,332.673 411,332.805C412.41,328.298 414.745,324.632 418.877,322.6C423.922,320.21 430.247,321.004 435.036,325C457.026,343.351 444.742,362.858 430.686,373.897C418.11,383.774 407.271,377.065 398.915,395.67C386.832,422.57 361.783,441.756 334.499,442.563C311.953,440.919 314.037,421.387 325.41,412.84C342.947,412.279 346.397,402.552 347.797,392.178C349.356,380.629 362.626,371.957 371.21,367.356C373.143,356.788 369.56,350.056 376.801,341.223C380.384,325.623 389.494,320.745 403.955,313.959Z" style="fill:rgb(241,238,230);"/>
                <path d="M403.901,313.843C403.952,313.819 404.013,313.831 404.05,313.874C404.088,313.916 404.093,313.978 404.064,314.026L387.745,340.304C387.745,340.304 400.607,340.304 400.607,340.304C402.111,337.417 403.676,335.272 405.703,334.004C407.152,333.097 408.837,332.636 410.907,332.675C411.603,330.476 412.521,328.478 413.76,326.773C415.057,324.989 416.706,323.525 418.821,322.485C418.821,322.485 418.822,322.485 418.823,322.484C421.44,321.245 424.4,320.854 427.314,321.315C430.064,321.751 432.773,322.946 435.118,324.902C445.34,333.433 448.181,342.216 446.892,350.286C445.399,359.642 438.341,368.048 430.765,373.998C422.7,380.332 415.35,379.853 408.909,383.589C405.32,385.671 402.018,389.073 399.031,395.722C393.129,408.861 384.138,420.163 373.305,428.388C361.923,437.031 348.507,442.276 334.503,442.691C334.499,442.691 334.495,442.691 334.49,442.69C324.014,441.926 318.827,437.313 317.392,431.736C315.717,425.225 319.164,417.375 325.333,412.738C325.354,412.723 325.379,412.714 325.405,412.713C333.001,412.47 337.941,410.504 341.212,407.504C345.454,403.613 346.884,397.988 347.671,392.161C348.295,387.537 350.783,383.37 354.1,379.74C359.079,374.29 365.925,370.048 371.095,367.273C372.252,360.887 371.4,355.902 372.161,351.002C372.658,347.807 373.834,344.648 376.684,341.164C378.12,334.928 380.439,330.4 383.628,326.778C388.425,321.328 395.194,317.929 403.901,313.843ZM403.619,314.257C395.138,318.245 388.524,321.602 383.82,326.946C380.651,330.546 378.35,335.048 376.925,341.251C376.921,341.27 376.912,341.288 376.899,341.304C374.072,344.753 372.905,347.879 372.414,351.041C371.65,355.959 372.509,360.962 371.335,367.379C371.329,367.418 371.304,367.451 371.27,367.469C366.115,370.232 359.265,374.465 354.289,379.912C351.008,383.503 348.541,387.622 347.924,392.195C347.129,398.083 345.671,403.76 341.385,407.692C338.085,410.719 333.107,412.715 325.454,412.967C319.39,417.542 315.99,425.262 317.64,431.672C319.053,437.166 324.182,441.68 334.5,442.435C348.45,442.021 361.813,436.793 373.151,428.185C383.951,419.985 392.914,408.717 398.798,395.618C401.815,388.902 405.156,385.471 408.781,383.368C415.213,379.637 422.554,380.122 430.607,373.797C438.134,367.885 445.156,359.541 446.64,350.245C447.917,342.248 445.085,333.552 434.954,325.098C432.647,323.173 429.98,321.996 427.274,321.568C424.411,321.114 421.504,321.497 418.933,322.715C416.857,323.735 415.239,325.173 413.967,326.923C412.726,328.631 411.812,330.636 411.122,332.843C411.105,332.898 411.054,332.934 410.997,332.933C408.398,332.864 406.418,333.594 404.754,335.021C403.253,336.307 402.009,338.157 400.798,340.49C400.776,340.532 400.732,340.559 400.685,340.559L387.515,340.559C387.469,340.559 387.426,340.534 387.404,340.493C387.381,340.453 387.383,340.403 387.407,340.364L403.619,314.257Z"/>
            </g>
            <g transform="matrix(1,0,0,1,-37.3146,31.4879)">
                <path d="M382.794,372.13C384.993,370.626 385.909,369.122 386.207,367.551C386.535,365.822 386.126,364.017 385.867,362.055C385.546,359.62 385.45,356.949 387.2,353.892C387.235,353.831 387.313,353.809 387.374,353.844C387.436,353.879 387.457,353.957 387.422,354.019C385.707,357.015 385.806,359.635 386.12,362.022C386.383,364.013 386.791,365.845 386.458,367.598C386.15,369.223 385.212,370.786 382.938,372.341C382.88,372.381 382.801,372.366 382.761,372.308C382.721,372.25 382.736,372.17 382.794,372.13Z"/>
            </g>
            <g transform="matrix(1,0,0,1,-37.3146,31.4879)">
                <path d="M401.487,369.681C401.094,366.353 403.226,363.025 403.731,360.023C403.967,358.624 403.84,357.297 402.899,356.078C402.699,355.819 402.092,355.655 401.267,355.476C399.362,355.062 396.331,354.656 394.146,353.428C392.91,352.733 391.943,351.776 391.583,350.418C391.071,348.486 392.426,346.891 394.455,345.734C397.051,344.253 400.738,343.485 402.828,343.594C407.676,343.847 412.022,345.601 415.406,348.382C418.934,351.28 421.417,355.294 422.336,359.884C422.349,359.953 422.305,360.02 422.235,360.034C422.166,360.048 422.099,360.003 422.085,359.934C421.178,355.402 418.727,351.441 415.244,348.579C411.9,345.832 407.606,344.099 402.815,343.849C400.76,343.742 397.134,344.5 394.581,345.955C392.666,347.048 391.346,348.529 391.83,350.352C392.172,351.643 393.097,352.546 394.272,353.206C396.434,354.421 399.436,354.817 401.321,355.226C402.227,355.423 402.882,355.638 403.101,355.922C404.09,357.203 404.23,358.596 403.983,360.066C403.482,363.046 401.35,366.347 401.741,369.651C401.749,369.721 401.699,369.785 401.629,369.793C401.559,369.801 401.495,369.751 401.487,369.681Z"/>
            </g>
            <g transform="matrix(1,0,0,1,-37.3146,31.4879)">
                <path d="M398.798,344.127C400.837,339.5 402.688,336.101 405.321,334.259C407.305,332.871 409.733,332.358 413.02,332.874C416.724,333.455 421.689,333.84 425.563,337.045C428.26,339.277 430.432,342.873 431.279,348.856C431.289,348.926 431.24,348.99 431.171,349C431.101,349.01 431.036,348.961 431.026,348.892C430.191,342.992 428.059,339.442 425.4,337.242C421.566,334.069 416.647,333.701 412.98,333.126C409.773,332.623 407.403,333.114 405.467,334.468C402.865,336.289 401.047,339.656 399.031,344.23C399.003,344.295 398.928,344.324 398.863,344.295C398.799,344.267 398.769,344.192 398.798,344.127Z"/>
            </g>
            <g transform="matrix(1,0,0,1,-37.3146,31.4879)">
                <path d="M247.127,399.935C247.226,400.767 247.31,401.609 247.387,402.461C247.561,404.373 247.702,406.335 247.908,408.352C248.452,413.689 249.105,419.46 249.563,425.158C249.871,428.992 250.09,432.793 250.128,436.408C250.128,436.478 250.072,436.536 250.001,436.537C249.931,436.537 249.873,436.481 249.872,436.41C249.834,432.801 249.616,429.006 249.308,425.179C248.851,419.482 248.198,413.713 247.653,408.378C247.448,406.36 247.307,404.397 247.133,402.484C247.056,401.634 246.972,400.795 246.873,399.965C246.865,399.895 246.915,399.832 246.985,399.823C247.055,399.815 247.118,399.865 247.127,399.935Z"/>
            </g>
            <g transform="matrix(1,0,0,1,-37.3146,31.4879)">
                <path d="M308.744,436.5L308.744,436.5C304.407,430.276 298.049,423.479 289.888,421.17C291.433,429.175 289.197,437.133 289.5,445.296L289.5,445.296C286.823,442.368 283.168,438.956 281,437C285.898,409.579 280.282,388.516 268.516,364C268.439,362.816 268.168,360.459 265.964,357.149L266,357C279.606,356.72 289.495,374.48 292.943,382.092C300.372,398.494 313.781,390.709 321.015,408.177C311.206,411.721 306.978,420.356 307.15,428.596C307.207,431.342 307.753,434.044 308.744,436.5Z" style="fill:rgb(191,214,65);"/>
                <path d="M289.509,445.423L289.519,445.422L289.531,445.42L289.531,445.42L289.538,445.418L289.55,445.413L289.561,445.408L289.572,445.401L289.583,445.393L289.592,445.385L289.6,445.375L289.608,445.364L289.614,445.353L289.619,445.342L289.623,445.329L289.626,445.317L289.627,445.31C289.628,445.304 289.628,445.298 289.628,445.291C289.416,439.588 290.445,433.986 290.555,428.397C290.602,426.047 290.487,423.701 290.051,421.35C293.962,422.495 297.452,424.675 300.499,427.318C303.716,430.108 306.438,433.414 308.639,436.573C308.663,436.607 308.702,436.628 308.744,436.628C308.744,436.628 308.861,436.551 308.861,436.551L308.744,436.628L308.744,436.627L308.863,436.452C308.365,435.22 307.981,433.926 307.714,432.595C307.453,431.288 307.305,429.946 307.277,428.593C307.187,424.288 308.305,419.874 310.802,416.144C313.056,412.777 316.433,409.968 321.058,408.297C321.091,408.285 321.118,408.261 321.132,408.229C321.146,408.197 321.146,408.16 321.133,408.128C319.199,403.458 316.824,400.583 314.242,398.569C311.146,396.154 307.749,394.978 304.448,393.424C300.204,391.427 296.121,388.799 293.059,382.04C290.929,377.336 286.344,368.769 279.947,362.954C275.951,359.322 271.248,356.764 265.997,356.872C265.935,356.874 265.885,356.919 265.874,356.978L265.872,356.985C265.865,357.014 265.85,357.077 265.843,357.105C265.827,357.168 265.857,357.211 265.891,357.238L265.857,357.22C266.663,358.43 267.209,359.512 267.581,360.455C268.215,362.066 268.34,363.268 268.388,364.008C268.39,364.025 268.394,364.041 268.401,364.055C274.291,376.329 278.64,387.736 280.896,399.51C283.142,411.23 283.315,423.313 280.874,436.978C280.867,437.021 280.882,437.065 280.914,437.095C282.064,438.132 283.633,439.58 285.252,441.147C286.682,442.532 288.151,444.01 289.406,445.382C289.43,445.409 289.464,445.424 289.5,445.424L289.509,445.423ZM266.102,357.126C266.902,358.335 267.446,359.417 267.818,360.361C268.46,361.99 268.591,363.21 268.642,363.968C274.537,376.254 278.888,387.674 281.147,399.462C283.395,411.191 283.572,423.283 281.138,436.953C282.285,437.988 283.833,439.418 285.429,440.964C286.776,442.267 288.157,443.654 289.361,444.957C289.202,439.368 290.191,433.873 290.3,428.392C290.348,425.992 290.226,423.595 289.762,421.194C289.754,421.15 289.769,421.106 289.801,421.076C289.834,421.046 289.88,421.035 289.922,421.047C293.949,422.186 297.54,424.413 300.667,427.125C303.626,429.691 306.169,432.693 308.276,435.618C307.939,434.656 307.667,433.661 307.464,432.645C307.2,431.324 307.05,429.966 307.022,428.598C306.931,424.242 308.063,419.777 310.59,416.002C312.851,412.625 316.228,409.8 320.846,408.103C318.942,403.556 316.616,400.745 314.085,398.77C311.005,396.368 307.623,395.201 304.339,393.655C300.049,391.636 295.922,388.978 292.827,382.145C290.706,377.463 286.144,368.932 279.775,363.143C275.854,359.579 271.248,357.053 266.102,357.126Z"/>
            </g>
            <g transform="matrix(1,0,0,1,-37.3146,31.4879)">
                <path d="M400.685,340.431C400.095,341.569 399.513,342.821 398.915,344.179L398.915,344.179C396.986,344.638 394.945,345.427 393.511,346.5L392.797,346.5L387.515,340.431L400.685,340.431ZM437.087,315.06L451.718,291.5L457,297.569L444.194,318.19C442.204,316.955 439.835,315.891 437.087,315.06Z" style="fill:rgb(55,56,56);stroke:black;stroke-width:0.51px;"/>
            </g>
            <g transform="matrix(1,0,0,1,-37.3146,31.4879)">
                <path d="M437.087,315.06C435.618,314.616 434.039,314.239 432.352,313.938C423.255,312.316 419.495,315.158 418,322L418.887,322.595C415.226,324.325 412.238,327.731 411,332.805L410.999,332.81C406.004,332.678 403.265,335.458 400.685,340.431L387.515,340.431L417.902,291.5L451.718,291.5L437.087,315.06Z" style="fill:rgb(191,214,65);stroke:black;stroke-width:0.51px;"/>
            </g>
            <g transform="matrix(1,-0.0589385,0,1,-40.0443,42.4681)">
                <rect x="223" y="454" width="58" height="11.163" style="fill:rgb(161,181,208);stroke:black;stroke-width:0.53px;"/>
            </g>
            <g transform="matrix(1,0,0,1,-37.3146,31.4879)">
                <path d="M418.887,322.595L418,322C419.495,315.158 423.255,312.316 432.352,313.938C452.588,317.546 457.205,332.183 446.307,341L446.307,341C444.898,335.726 441.404,330.315 435.036,325C430.25,321.006 423.93,320.211 418.887,322.595Z" style="fill:rgb(241,238,230);"/>
                <path d="M446.387,341.099L446.378,341.106L446.369,341.111L446.36,341.116L446.35,341.12L446.339,341.124L446.329,341.126L446.318,341.127L446.307,341.128L446.307,341.128C446.281,341.128 446.256,341.12 446.236,341.106L446.236,341.106L446.236,341.106C446.211,341.089 446.192,341.064 446.184,341.033C445.407,338.125 443.993,335.176 441.809,332.224C440.048,329.843 437.786,327.461 434.954,325.098C432.648,323.174 429.984,321.998 427.279,321.568C424.418,321.114 421.512,321.495 418.941,322.711C418.901,322.73 418.853,322.726 418.816,322.701L417.929,322.106C417.885,322.077 417.864,322.024 417.875,321.973C418.708,318.159 420.245,315.578 422.988,314.298C425.218,313.257 428.252,313.077 432.374,313.812C441.009,315.352 446.811,318.896 449.794,323.136C453.855,328.908 452.718,335.977 446.387,341.099ZM446.378,340.777C452.455,335.763 453.536,328.899 449.585,323.283C446.631,319.085 440.88,315.588 432.329,314.063C428.275,313.34 425.289,313.506 423.096,314.529C420.441,315.769 418.96,318.268 418.143,321.942L418.898,322.449C421.498,321.236 424.431,320.858 427.319,321.316C430.067,321.752 432.775,322.947 435.118,324.902C437.967,327.28 440.242,329.677 442.014,332.072C444.172,334.988 445.584,337.903 446.378,340.777Z"/>
            </g>
            <g transform="matrix(1,0,0,1,-37.3146,-1020.46)">
                <path d="M240.091,1444.19C239.903,1440.27 240,1438.82 240,1435.94C244.921,1440.88 246.318,1446.16 247,1451.89C247.202,1446.61 247.473,1440.01 251,1435.94C251,1435.94 252.329,1444.12 252.389,1444.12C255.04,1444.25 261.263,1433.89 265.006,1426.95C268.538,1431.66 274.666,1471.16 266.094,1488.09C258.926,1487.9 240.151,1489.95 233,1490.51C234.774,1464.34 215.12,1417.65 212,1414.1C211.981,1414.08 211.961,1414.06 211.941,1414.03L212,1413.94C214.948,1411.91 218.302,1411.22 220.277,1410.94L220.277,1410.94C213.354,1422.46 229.838,1440.3 240.091,1444.19Z" style="fill:rgb(191,214,65);"/>
                <path d="M220.261,1410.85C220.243,1410.92 220.276,1411.06 220.277,1411.07L220.277,1411.07L220.277,1411.07L220.277,1411.07L220.277,1411.07L220.261,1410.85C220.268,1410.83 220.279,1410.81 220.3,1410.82C220.449,1410.85 220.279,1411.07 220.277,1411.07L220.277,1411.07L220.295,1411.07C220.332,1411.07 220.366,1411.04 220.386,1411.01C217.532,1415.76 218.701,1421.59 221.757,1427.06C226.031,1434.71 234.002,1441.66 239.955,1444L239.955,1444C239.897,1442.76 239.868,1441.77 239.855,1440.89C239.83,1439.12 239.872,1437.84 239.872,1435.94C239.872,1435.89 239.903,1435.85 239.951,1435.83C239.999,1435.81 240.054,1435.82 240.09,1435.85C242.455,1438.23 244.01,1440.68 245.064,1443.22C246.026,1445.54 246.571,1447.93 246.932,1450.4C247.054,1447.64 247.266,1444.64 247.97,1441.88C248.546,1439.63 249.453,1437.53 250.904,1435.86C250.936,1435.82 250.987,1435.81 251.035,1435.82C251.083,1435.83 251.118,1435.87 251.126,1435.92C251.126,1435.92 251.987,1441.22 252.354,1443.29C252.413,1443.62 252.459,1443.87 252.487,1443.99C252.917,1443.98 253.433,1443.68 254.02,1443.18C254.898,1442.44 255.915,1441.25 256.992,1439.79C259.666,1436.18 262.705,1430.95 264.894,1426.89C264.915,1426.85 264.954,1426.83 264.997,1426.83C265.04,1426.82 265.082,1426.84 265.109,1426.88C267.09,1429.52 269.898,1443.08 270.471,1457.48C270.922,1468.82 269.991,1480.68 266.208,1488.15C266.185,1488.19 266.14,1488.22 266.09,1488.22C263.749,1488.16 260.167,1488.33 256.156,1488.62C247.896,1489.21 237.821,1490.26 233.01,1490.63C232.973,1490.64 232.937,1490.62 232.91,1490.6C232.884,1490.57 232.87,1490.54 232.873,1490.5C233.48,1481.54 231.57,1470.17 228.674,1458.95C223.123,1437.45 213.952,1416.51 211.904,1414.18L211.847,1414.12L211.941,1414.16C211.941,1414.16 211.762,1414.08 211.84,1413.96C211.851,1413.94 211.876,1413.9 211.887,1413.88L211.89,1413.88C211.899,1413.86 211.912,1413.85 211.928,1413.84C213.23,1412.94 214.612,1412.3 215.92,1411.85C217.592,1411.26 219.144,1410.97 220.259,1410.82L220.261,1410.85ZM220.032,1411.11C218.955,1411.27 217.53,1411.55 216.004,1412.09C214.727,1412.53 213.379,1413.15 212.106,1414.03C214.178,1416.42 223.366,1437.37 228.921,1458.89C231.809,1470.07 233.716,1481.41 233.137,1490.37C238.005,1489.99 247.961,1488.95 256.138,1488.37C260.113,1488.08 263.668,1487.9 266.016,1487.96C269.753,1480.52 270.663,1468.75 270.216,1457.49C269.657,1443.44 266.983,1430.18 265.02,1427.19C262.834,1431.24 259.838,1436.38 257.198,1439.94C256.106,1441.42 255.074,1442.62 254.185,1443.38C253.492,1443.96 252.876,1444.27 252.383,1444.25C252.365,1444.25 252.297,1444.24 252.266,1444.16C252.26,1444.14 252.252,1444.12 252.242,1444.07C252.215,1443.95 252.166,1443.69 252.103,1443.33C251.786,1441.54 251.1,1437.35 250.919,1436.24C249.597,1437.84 248.76,1439.82 248.217,1441.95C247.389,1445.19 247.247,1448.78 247.128,1451.9C247.125,1451.96 247.072,1452.02 247.005,1452.02C246.939,1452.02 246.881,1451.98 246.873,1451.91C246.519,1448.93 245.97,1446.07 244.829,1443.32C243.819,1440.88 242.343,1438.53 240.127,1436.25C240.123,1437.98 240.087,1439.21 240.111,1440.89C240.124,1441.8 240.155,1442.85 240.219,1444.18C240.221,1444.23 240.201,1444.27 240.167,1444.29C240.132,1444.32 240.086,1444.32 240.046,1444.31C234.033,1442.03 225.882,1434.97 221.534,1427.18C218.479,1421.71 217.305,1415.89 220.032,1411.11ZM220.294,1411.07L220.293,1411.07L220.294,1411.07Z"/>
            </g>
            <g transform="matrix(0.5,0.866025,-0.866025,0.5,389.874,-21.8176)">
                <path d="M251.943,394.022C251.817,392.445 251.955,390.93 252.214,389.568C252.544,387.829 253.071,386.341 253.493,385.296C253.519,385.231 253.593,385.199 253.659,385.226C253.724,385.252 253.756,385.326 253.729,385.392C253.313,386.424 252.791,387.896 252.465,389.616C252.21,390.956 252.073,392.449 252.198,394.002C252.204,394.072 252.151,394.134 252.081,394.139C252.011,394.145 251.949,394.092 251.943,394.022Z"/>
            </g>
            <g transform="matrix(1,0,0,1,-37.3146,31.4879)">
                <path d="M224.328,301.001L224.328,301.001L224.328,301.079C224.328,301.129 224.299,301.174 224.253,301.195C224.208,301.216 224.155,301.209 224.117,301.176C221.578,299.012 218.823,297.969 217.109,298.866C215.971,299.461 215.322,300.915 215.498,303.439C215.503,303.509 215.45,303.57 215.38,303.575C215.309,303.58 215.248,303.527 215.243,303.456C215.057,300.789 215.788,299.269 216.99,298.64C218.722,297.734 221.495,298.683 224.072,300.806C224.055,299.585 223.747,298.316 223.265,297.02C221.403,292.024 216.956,286.637 216.219,282.122C216.208,282.052 216.255,281.986 216.325,281.975C216.394,281.964 216.46,282.011 216.471,282.08C217.206,286.582 221.648,291.95 223.504,296.931C224.024,298.327 224.342,299.692 224.328,301.001Z"/>
            </g>
            <g transform="matrix(1,0,0,1,-37.3146,31.4879)">
                <path d="M224.2,301L224.2,301.079" style="fill:none;"/>
                <path d="M224.327,301.001L224.328,301.001L224.328,301.079C224.328,301.15 224.27,301.207 224.2,301.207C224.129,301.207 224.072,301.15 224.072,301.079L224.072,301.008C224.072,300.833 224.2,301.128 224.2,301.128C224.27,300.872 224.328,300.93 224.328,301L224.327,301.001Z"/>
            </g>
        </g>
    </g>
</svg>
